HIERARCHY
ROOT Hip
{
	OFFSET 0 1.131 0.0052
	CHANNELS 6 Xposition Yposition Zposition Xrotation Yrotation Zrotation
	JOINT Abdomen
	{
		OFFSET 0 -0.047353 -0.05
		CHANNELS 3 Xrotation Zrotation Yrotation
		JOINT Chest
		{
			OFFSET 0 0.132153 0.007439
			CHANNELS 3 Xrotation Zrotation Yrotation
			JOINT Neck
			{
				OFFSET 0 0.3078 0.006161
				CHANNELS 3 Xrotation Zrotation Yrotation
				JOINT Head_comp
				{
					OFFSET 0 0.0884 0.013
					CHANNELS 3 Xrotation Yrotation Zrotation
					End Site
					{
						OFFSET -0 0.156 0.0624
					}
				}
			}
			JOINT Left_Collar
			{
				OFFSET 0.02282 0.250342 0.017193
				CHANNELS 2 Yrotation Zrotation
				JOINT Left_Shoulder
				{
					OFFSET 0.15421 0 0
					CHANNELS 3 Xrotation Yrotation Zrotation
					JOINT Left_Forearm
					{
						OFFSET 0.265212 0 0
						CHANNELS 2 Yrotation Xrotation
						JOINT Left_Hand
						{
							OFFSET 0.27571 0 0
							CHANNELS 2 Zrotation Yrotation
							JOINT L1ProxPhalanx
							{
								OFFSET 0.014142 0.001733 0.014142
								CHANNELS 3 Yrotation Zrotation Xrotation
								JOINT L1MidPhalanx
								{
									OFFSET 0.04 0 0
									CHANNELS 1 Zrotation
									JOINT L1DistPhalanx
									{
										OFFSET 0.035 0 0
										CHANNELS 1 Zrotation
										End Site
										{
											OFFSET 0.029 -0 -0
										}
									}
								}
							}
							JOINT L2ProxPhalanx
							{
								OFFSET 0.0821037 0.001578 0.0219996
								CHANNELS 2 Yrotation Zrotation
								JOINT L2MidPhalanx
								{
									OFFSET 0.04 0 0
									CHANNELS 1 Zrotation
									JOINT L2DistPhalanx
									{
										OFFSET 0.028 0 0
										CHANNELS 1 Zrotation
										End Site
										{
											OFFSET 0.02 -0 -0
										}
									}
								}
							}
							JOINT L3ProxPhalanx
							{
								OFFSET 0.083 0 0
								CHANNELS 2 Yrotation Zrotation
								JOINT L3MidPhalanx
								{
									OFFSET 0.053 0 0
									CHANNELS 1 Zrotation
									JOINT L3DistPhalanx
									{
										OFFSET 0.03 0 0
										CHANNELS 1 Zrotation
										End Site
										{
											OFFSET 0.023 -0 -0
										}
									}
								}
							}
							JOINT L4ProxPhalanx
							{
								OFFSET 0.077274 -0.000761 -0.0207055
								CHANNELS 2 Yrotation Zrotation
								JOINT L4MidPhalanx
								{
									OFFSET 0.05 0 0
									CHANNELS 1 Zrotation
									JOINT L4DistPhalanx
									{
										OFFSET 0.03 0 0
										CHANNELS 1 Zrotation
										End Site
										{
											OFFSET 0.023 -0 -0
										}
									}
								}
							}
							JOINT L5ProxPhalanx
							{
								OFFSET 0.0675499 -0.001644 -0.039
								CHANNELS 2 Yrotation Zrotation
								JOINT L5MidPhalanx
								{
									OFFSET 0.04 0 0
									CHANNELS 1 Zrotation
									JOINT L5DistPhalanx
									{
										OFFSET 0.021 0 0
										CHANNELS 1 Zrotation
										End Site
										{
											OFFSET 0.022 -0 -0
										}
									}
								}
							}
						}
					}
				}
			}
			JOINT Right_Collar
			{
				OFFSET -0.02282 0.250342 0.017193
				CHANNELS 2 Yrotation Zrotation
				JOINT Right_Shoulder
				{
					OFFSET -0.15421 0 0
					CHANNELS 3 Xrotation Yrotation Zrotation
					JOINT Right_Forearm
					{
						OFFSET -0.265212 0 0
						CHANNELS 2 Yrotation Xrotation
						JOINT Right_Hand
						{
							OFFSET -0.27571 3e-006 0
							CHANNELS 2 Zrotation Yrotation
							JOINT R1ProxPhalanx
							{
								OFFSET -0.014142 0.001733 0.014142
								CHANNELS 3 Yrotation Zrotation Xrotation
								JOINT R1MidPhalanx
								{
									OFFSET -0.04 0 0
									CHANNELS 1 Zrotation
									JOINT R1DistPhalanx
									{
										OFFSET -0.035 0 0
										CHANNELS 1 Zrotation
										End Site
										{
											OFFSET -0.029 -0 -0
										}
									}
								}
							}
							JOINT R2ProxPhalanx
							{
								OFFSET -0.0821037 0.001578 0.0219996
								CHANNELS 2 Yrotation Zrotation
								JOINT R2MidPhalanx
								{
									OFFSET -0.04 0 0
									CHANNELS 1 Zrotation
									JOINT R2DistPhalanx
									{
										OFFSET -0.028 0 0
										CHANNELS 1 Zrotation
										End Site
										{
											OFFSET -0.02 -0 -0
										}
									}
								}
							}
							JOINT R3ProxPhalanx
							{
								OFFSET -0.083 0 0
								CHANNELS 2 Yrotation Zrotation
								JOINT R3MidPhalanx
								{
									OFFSET -0.053 0 0
									CHANNELS 1 Zrotation
									JOINT R3DistPhalanx
									{
										OFFSET -0.03 0 0
										CHANNELS 1 Zrotation
										End Site
										{
											OFFSET -0.023 -0 -0
										}
									}
								}
							}
							JOINT R4ProxPhalanx
							{
								OFFSET -0.077274 -0.000761 -0.0207055
								CHANNELS 2 Yrotation Zrotation
								JOINT R4MidPhalanx
								{
									OFFSET -0.05 0 0
									CHANNELS 1 Zrotation
									JOINT R4DistPhalanx
									{
										OFFSET -0.03 0 0
										CHANNELS 1 Zrotation
										End Site
										{
											OFFSET -0.023 -0 -0
										}
									}
								}
							}
							JOINT R5ProxPhalanx
							{
								OFFSET -0.0675499 -0.001644 -0.039
								CHANNELS 2 Yrotation Zrotation
								JOINT R5MidPhalanx
								{
									OFFSET -0.04 0 0
									CHANNELS 1 Zrotation
									JOINT R5DistPhalanx
									{
										OFFSET -0.021 0 0
										CHANNELS 1 Zrotation
										End Site
										{
											OFFSET -0.022 -0 -0
										}
									}
								}
							}
						}
					}
				}
			}
		}
	}
	JOINT Left_Thigh
	{
		OFFSET 0.1118 -0.1612 -0.0442
		CHANNELS 3 Xrotation Zrotation Yrotation
		JOINT Left_Shin
		{
			OFFSET 0 -0.477856 0
			CHANNELS 1 Xrotation
			JOINT Left_Foot
			{
				OFFSET 0 -0.431952 0
				CHANNELS 2 Xrotation Zrotation
				JOINT Left_Toe
				{
					OFFSET 0 -0.0442 0.119
					CHANNELS 1 Xrotation
					End Site
					{
						OFFSET -0 -0 0.07
					}
				}
			}
		}
	}
	JOINT Right_Thigh
	{
		OFFSET -0.1118 -0.1612 -0.0442
		CHANNELS 3 Xrotation Zrotation Yrotation
		JOINT Right_Shin
		{
			OFFSET 0 -0.477856 0
			CHANNELS 1 Xrotation
			JOINT Right_Foot
			{
				OFFSET 0 -0.431952 0
				CHANNELS 2 Xrotation Zrotation
				JOINT Right_Toe
				{
					OFFSET 0 -0.0442 0.119
					CHANNELS 1 Xrotation
					End Site
					{
						OFFSET -0 -0 0.07
					}
				}
			}
		}
	}
}
MOTION
Frames: 6
Frame Time: 0.009975
-0.101722 -0.0600482 0.0398292 6.08282e-012 4.64954e-009 -5.10964e-006 0 -0 0 0 -0 0 0 -0 0 -0.711995 0.291907 2.99843e-014 1.22656 -14.8012 -12.196 -30.8232 -31.0511 -35.6951 18.7848 21.3379 -7.25824 -97.4887 -67.0672 64.7516 -9.4973 -5.91958 -6.45825 -2.64256 -13.033 -14.6863 -2.84833 0.90501 -3.68833 -0.652135 -5.35658 1.76502 -6.53629 -5.51214 5.56912 4.03723 -34.9492 26.8667 -2.0324 14.9249 -12.0919 30.1406 33.2095 39.2282 16.5092 -22.5732 9.46498 84.3997 68.6531 75.9787 10.5181 7.0483 4.25587 11.7832 15.7028 12.7197 2.26771 -0.549352 5.54474 1.13039 4.85192 -1.59248 10.6497 6.7326 -5.99113 -4.32967 44.9147 -29.872 0.0408174 -0.634648 -0.000452117 0.0240216 -0.0648365 0.634653 0 0.0522229 -0.634648 -0.00057845 1.70755e-006 -0.0522214 0.634653 0 
-0.101724 -0.0600482 0.039832 2.51792e-011 4.66501e-009 -5.10964e-006 0 -0 0 0 -0 0 0 -0 0 -0.711995 0.291914 1.84488e-014 1.23201 -14.8068 -12.1525 -30.8341 -31.0116 -35.7135 18.729 21.3273 -7.27446 -97.4701 -67.0506 64.8052 -9.50206 -5.89389 -6.48487 -2.62776 -13.0443 -14.6907 -2.84498 0.906048 -3.67571 -0.663668 -5.35196 1.76603 -6.54001 -5.54252 5.55758 4.03786 -34.942 26.8345 -2.0324 14.9249 -12.0919 30.1406 33.2095 39.2282 16.5092 -22.5732 9.46498 84.3997 68.6531 75.9787 10.5181 7.0483 4.25587 11.7832 15.7028 12.7197 2.26771 -0.549352 5.54474 1.13039 4.85192 -1.59248 10.6497 6.7326 -5.99113 -4.32967 44.9147 -29.872 0.0409909 -0.634527 -0.000453953 0.0240216 -0.06501 0.634532 0 0.0523964 -0.634527 -0.000580263 1.70755e-006 -0.0523949 0.634532 0 
-0.101731 -0.0600481 0.0398348 5.75471e-012 4.68057e-009 -5.10963e-006 0 -0 0 0 -0 0 0 -0 0 -0.711995 0.291917 6.27228e-015 1.24048 -14.8172 -12.2308 -30.7984 -31.0217 -35.6851 18.8037 21.3441 -7.28781 -97.533 -66.982 64.7684 -9.52423 -5.86422 -6.52818 -2.59474 -13.0845 -14.7008 -2.83106 0.905199 -3.68016 -0.639347 -5.32731 1.76486 -6.54462 -5.55092 5.57011 4.03883 -35.0787 26.9785 -2.0324 14.9249 -12.0919 30.1406 33.2095 39.2282 16.5092 -22.5732 9.46498 84.3997 68.6531 75.9787 10.5181 7.0483 4.25587 11.7832 15.7028 12.7197 2.26771 -0.549352 5.54474 1.13039 4.85192 -1.59248 10.6497 6.7326 -5.99113 -4.32967 44.9147 -29.872 0.0411688 -0.634127 -0.000455635 0.0240216 -0.0651879 0.634132 0 0.0525743 -0.634127 -0.000581865 8.6658e-007 -0.0525719 0.634132 0 
-0.101742 -0.060048 0.0398388 1.96384e-011 4.69682e-009 -5.10963e-006 0 -0 0 0 -0 0 0 -0 0 -0.711995 0.291943 -7.10509e-015 1.25263 -14.819 -12.3949 -30.7219 -31.086 -35.6313 18.9556 21.3465 -7.29225 -97.5511 -66.906 64.7648 -9.55594 -5.82939 -6.5868 -2.51966 -13.1289 -14.7091 -2.80518 0.905649 -3.67664 -0.629304 -5.29454 1.76484 -6.56945 -5.47042 5.58874 4.04065 -35.2867 27.214 -2.0324 14.9249 -12.0919 30.1406 33.2095 39.2282 16.5092 -22.5732 9.46498 84.3997 68.6531 75.9787 10.5181 7.0483 4.25587 11.7832 15.7028 12.7197 2.26771 -0.549352 5.54474 1.13039 4.85192 -1.59248 10.6497 6.7326 -5.99113 -4.32967 44.9147 -29.872 0.041422 -0.6334 -0.000457912 0.0240216 -0.0654411 0.633405 0 0.0528275 -0.6334 -0.000583996 8.36698e-007 -0.0528252 0.633405 0 
-0.101753 -0.0600479 0.0398416 1.19472e-011 4.72608e-009 -5.10963e-006 0 -0 0 0 -0 0 0 -0 0 -0.711995 0.291976 4.37841e-014 1.25757 -14.8167 -12.5336 -30.6493 -31.1466 -35.5768 19.0841 21.3588 -7.30251 -97.5724 -66.8253 64.7409 -9.56952 -5.84262 -6.6502 -2.46464 -13.1523 -14.7344 -2.76271 0.903388 -3.66766 -0.637282 -5.25958 1.76146 -6.5989 -5.37855 5.62852 4.03961 -35.4825 27.4618 -2.0324 14.9249 -12.0919 30.1406 33.2095 39.2282 16.5092 -22.5732 9.46498 84.3997 68.6531 75.9787 10.5181 7.0483 4.25587 11.7832 15.7028 12.7197 2.26771 -0.549352 5.54474 1.13039 4.85192 -1.59248 10.6497 6.7326 -5.99113 -4.32967 44.9147 -29.872 0.0416 -0.632723 -0.000459388 0.0240216 -0.065619 0.632728 0 0.0530046 -0.632723 -0.000585328 2.25555e-006 -0.0530037 0.632728 0 
-0.101758 -0.0600478 0.0398445 -3.14658e-012 4.72801e-009 -5.10963e-006 0 -0 0 0 -0 0 0 -0 0 -0.711995 0.292005 -1.90595e-015 1.25413 -14.8118 -12.5201 -30.6253 -31.136 -35.5846 19.0477 21.3508 -7.30567 -97.5602 -66.7901 64.8015 -9.57026 -5.86696 -6.72044 -2.44051 -13.154 -14.733 -2.7317 0.900742 -3.68868 -0.596857 -5.23086 1.75715 -6.59429 -5.39023 5.66448 4.03309 -35.4617 27.5699 -2.0324 14.9249 -12.0919 30.1406 33.2095 39.2282 16.5092 -22.5732 9.46498 84.3997 68.6531 75.9787 10.5181 7.0483 4.25587 11.7832 15.7028 12.7197 2.26771 -0.549352 5.54474 1.13039 4.85192 -1.59248 10.6497 6.7326 -5.99113 -4.32967 44.9147 -29.872 0.041781 -0.632379 -0.000461137 0.0240216 -0.0658001 0.632384 0 0.0531857 -0.632379 -0.000587009 2.28646e-006 -0.0531847 0.632384 0 
